# This file uses centimeters as units for non-parametric coordinates.

v -36.551632 -40.097412 50.207500
v 4.173625 -23.942377 64.770241
v -24.060747 30.251799 51.081120
v -48.290688 8.730092 46.713497
v 39.094212 -33.696117 48.284130
v 42.023060 19.715731 24.898930
v 34.416882 58.179993 -15.293006
v 2.077679 72.085236 -0.468367
v -0.668610 -74.212105 14.595989
v -87.981972 -31.612200 -44.780437
v -51.480877 -39.633617 -75.670258
v -7.292988 -59.288105 -39.675739
v -47.906059 -58.077656 27.831499
v -107.986443 -15.069567 -22.747147
v -92.640770 -22.798290 12.333851
v -90.006706 -3.785969 22.263344
v -103.663986 15.766206 -18.026609
v -89.610970 26.950617 -30.323717
v -4.579618 77.499672 -19.511099
v -33.262257 64.385017 -16.317959
v -53.294243 52.113388 -24.673307
v -63.308952 48.801403 -37.372616
v 4.923935 73.606194 -44.009510
v -39.311665 40.395428 -65.398849
v -63.522640 24.713703 -65.208405
v 26.794178 9.165466 -70.560295
v 3.374913 -13.313015 -81.376045
v 28.722015 61.430515 -40.919254
v 37.384968 -15.297565 -36.472683
v 7.664176 -46.185699 -44.216602
vt 1.761936 0.402601
vt 1.712125 0.507749
vt 1.552612 0.465257
vt 1.604103 0.381709
vt 1.581005 0.654756
vt 1.731843 0.600878
vt 1.443452 0.733931
vt 1.915050 0.218101
vt 1.919331 0.570812
vt 1.234130 0.588987
vt 1.397834 0.027102
vt 1.211743 0.027482
vt 1.912759 0.794416
vt 1.651137 0.190439
vt 1.514494 0.092949
vt 1.602074 0.240785
vt 1.480531 0.184937
vt 1.419227 0.213100
vt 1.940230 0.157862
vt 1.348712 0.430091
vt 1.360650 0.347801
vt 1.347795 0.300078
vt 1.907002 0.081765
vt 1.240006 0.291913
vt 1.288642 0.210808
vt 1.656940 0.934960
vt 1.780709 0.970211
vt 1.823609 0.092773
vt 1.712261 0.819761
vt 1.848354 0.814858
vt 1.830365 0.352741
vt 1.073004 0.578541
vt 1.051613 0.754445
vt 1.386176 0.693678
vt 1.399354 0.815099
vt 1.299916 0.853113
vt 1.159109 0.909281
vt 1.984854 0.978815
vt 1.048369 0.186827
vt 1.015146 0.307227
vt 1.804419 0.173200
vt 1.115149 0.498182
vt 1.448468 0.827020
vt 1.202658 0.487638
vt 1.298017 0.520395
vt 1.366193 0.579160
vn -0.301803 0.041759 0.952455
vn -0.301803 0.041759 0.952455
vn -0.301803 0.041759 0.952455
vn -0.301803 0.041759 0.952455
vn 0.423695 0.382529 0.821069
vn 0.423695 0.382529 0.821069
vn 0.423695 0.382529 0.821069
vn 0.423695 0.382529 0.821069
vn 0.425966 0.636407 0.643070
vn 0.425966 0.636407 0.643070
vn 0.425966 0.636407 0.643070
vn 0.425966 0.636407 0.643070
vn 0.077762 -0.708038 0.701880
vn 0.077762 -0.708038 0.701880
vn 0.077762 -0.708038 0.701880
vn 0.077762 -0.708038 0.701880
vn -0.311596 -0.937278 -0.156261
vn -0.311596 -0.937278 -0.156261
vn -0.311596 -0.937278 -0.156261
vn -0.311596 -0.937278 -0.156261
vn -0.619048 -0.782208 0.070215
vn -0.619048 -0.782208 0.070215
vn -0.619048 -0.782208 0.070215
vn -0.619048 -0.782208 0.070215
vn -0.536482 -0.150771 0.830334
vn -0.536482 -0.150771 0.830334
vn -0.536482 -0.150771 0.830334
vn -0.536482 -0.150771 0.830334
vn -0.685717 0.172357 -0.707167
vn -0.685717 0.172357 -0.707167
vn -0.685717 0.172357 -0.707167
vn -0.685717 0.172357 -0.707167
vn -0.930330 0.022253 0.366048
vn -0.930330 0.022253 0.366048
vn -0.930330 0.022253 0.366048
vn -0.930330 0.022253 0.366048
vn -0.375614 0.814765 0.441671
vn -0.375614 0.814765 0.441671
vn -0.375614 0.814765 0.441671
vn -0.375614 0.814765 0.441671
vn -0.622811 0.654183 0.429129
vn -0.622811 0.654183 0.429129
vn -0.622811 0.654183 0.429129
vn -0.622811 0.654183 0.429129
vn -0.557351 0.706457 0.436209
vn -0.557351 0.706457 0.436209
vn -0.557351 0.706457 0.436209
vn -0.557351 0.706457 0.436209
vn -0.430488 0.780659 0.453047
vn -0.430488 0.780659 0.453047
vn -0.430488 0.780659 0.453047
vn -0.430488 0.780659 0.453047
vn -0.417998 0.861019 -0.289696
vn -0.417998 0.861019 -0.289696
vn -0.417998 0.861019 -0.289696
vn -0.417998 0.861019 -0.289696
vn -0.349097 0.861871 -0.367844
vn -0.349097 0.861871 -0.367844
vn -0.349097 0.861871 -0.367844
vn -0.349097 0.861871 -0.367844
vn -0.549142 0.634045 -0.544455
vn -0.549142 0.634045 -0.544455
vn -0.549142 0.634044 -0.544455
vn -0.549142 0.634045 -0.544455
vn -0.718361 0.060603 -0.693026
vn -0.718360 0.060603 -0.693026
vn -0.718361 0.060603 -0.693026
vn -0.718360 0.060603 -0.693026
vn -0.008951 0.278578 -0.960372
vn -0.008951 0.278578 -0.960372
vn -0.008951 0.278578 -0.960372
vn -0.008951 0.278578 -0.960372
vn 0.186077 0.427623 -0.884598
vn 0.186077 0.427623 -0.884598
vn 0.186077 0.427623 -0.884598
vn 0.186077 0.427623 -0.884598
vn 0.438729 0.897073 0.052695
vn 0.438729 0.897073 0.052695
vn 0.438729 0.897073 0.052695
vn 0.438729 0.897073 0.052695
vn 0.970727 0.096862 -0.219790
vn 0.970727 0.096862 -0.219790
vn 0.970727 0.096862 -0.219790
vn 0.970727 0.096862 -0.219790
vn 0.997198 -0.000992 -0.074796
vn 0.997198 -0.000992 -0.074796
vn 0.997198 -0.000992 -0.074796
vn 0.997198 -0.000992 -0.074796
vn 0.683078 -0.492677 -0.539142
vn 0.683078 -0.492677 -0.539141
vn 0.683078 -0.492677 -0.539141
vn 0.683078 -0.492677 -0.539141
vn 0.753793 -0.634623 -0.170437
vn 0.753793 -0.634623 -0.170437
vn 0.753793 -0.634623 -0.170437
vn 0.753793 -0.634623 -0.170437
vn 0.284416 -0.679456 -0.676349
vn 0.284416 -0.679456 -0.676349
vn 0.284416 -0.679456 -0.676349
vn 0.284416 -0.679456 -0.676349
vn -0.163380 0.128460 -0.978164
vn -0.163380 0.128460 -0.978164
vn -0.163380 0.128460 -0.978164
vn 0.451759 0.891508 0.033563
vn 0.451759 0.891508 0.033563
vn 0.451759 0.891508 0.033563
vn 0.582758 -0.762579 -0.280830
vn 0.582758 -0.762579 -0.280830
vn 0.582758 -0.762579 -0.280830
vn -0.590348 -0.456010 0.665991
vn -0.590348 -0.456010 0.665991
vn -0.590348 -0.456010 0.665992
vn -0.077225 -0.757690 0.648029
vn -0.077225 -0.757690 0.648029
vn -0.077225 -0.757690 0.648029
vn -0.367253 -0.907322 -0.204675
vn -0.367253 -0.907322 -0.204675
vn -0.367253 -0.907322 -0.204675
s off
f 1/1/1 2/2/2 3/3/3 4/4/4
f 6/5/5 3/3/6 2/2/7 5/6/8
f 6/5/9 7/7/10 8/46/11 3/3/12
f 2/2/13 1/1/14 9/9/15 5/6/16
f 13/10/17 10/36/18 11/37/19 12/33/20
f 15/34/21 14/35/22 10/36/23 13/10/24
f 15/14/25 1/1/26 4/4/27 16/16/28
f 14/15/29 17/17/30 18/18/31 10/11/32
f 14/15/33 15/14/34 16/16/35 17/17/36
f 3/3/37 8/46/38 19/45/39 20/20/40
f 3/3/41 20/20/42 21/21/43 4/4/44
f 4/4/45 21/21/46 22/22/47 18/18/48
f 17/17/49 16/16/50 4/4/51 18/18/52
f 20/20/53 19/45/54 23/44/55 21/21/56
f 23/44/57 24/24/58 22/22/59 21/21/60
f 22/22/61 24/24/62 25/25/63 18/18/64
f 25/25/65 11/12/66 10/11/67 18/18/68
f 24/24/69 26/40/70 27/39/71 25/25/72
f 26/40/73 24/24/74 23/44/75 28/42/76
f 8/8/77 7/41/78 28/28/79 19/19/80
f 26/26/81 28/43/82 7/7/83 29/29/84
f 6/5/85 5/6/86 29/29/87 7/7/88
f 30/30/89 27/27/90 26/26/91 29/29/92
f 29/29/93 5/6/94 9/9/95 30/30/96
f 12/13/97 11/38/98 27/27/99 30/30/100
f 11/12/101 25/25/102 27/39/103
f 23/23/104 19/19/105 28/28/106
f 9/9/107 12/13/108 30/30/109
f 15/14/110 13/31/111 1/1/112
f 13/31/113 9/9/114 1/1/115
f 9/32/116 13/10/117 12/33/118
