# This file uses centimeters as units for non-parametric coordinates.

v -2.772857 54.354584 36.403244
v 0.270020 22.833275 45.606464
v 31.573563 59.833965 23.764530
v 14.988732 66.952156 27.195272
v 41.444263 23.307745 31.054359
v 39.630047 57.239262 18.451660
v 25.462029 84.742073 -8.489235
v 11.585283 84.049408 -0.022585
v 41.151791 64.231247 8.820009
v 41.683308 18.157635 36.887989
v 22.553345 17.810072 49.990715
v 31.917305 -5.164732 55.465752
v 45.928158 -1.503552 45.506443
v -0.851171 -8.931653 52.939034
v 20.225893 -29.753965 54.801514
v 48.577042 -21.676807 37.100925
v 30.496244 -61.776188 30.604328
v 14.290388 -48.096001 48.745476
v -26.637142 -41.995777 38.906403
v -15.444861 -57.036980 37.855820
v 61.388073 2.098569 2.883708
v 49.968285 -49.732040 22.647999
v 57.864468 -41.656212 -7.415507
v 57.150696 19.683071 -3.832254
v 52.145168 42.018715 -9.112229
v 50.023418 51.245575 -11.251134
v 39.939762 59.215454 -31.671801
v 27.101101 70.061234 -38.826481
v -6.463157 78.300179 -6.031369
v -12.353220 53.249470 -49.597691
v -17.983278 61.950783 -35.705269
v -14.853386 60.395096 4.025378
v -28.109371 55.910686 -27.920591
v -31.252754 47.052296 19.121220
v -44.028778 22.385826 14.640262
v -37.031013 32.726925 -30.144733
v -46.197144 -13.494993 19.754963
v -45.374249 -33.664639 21.544098
v -17.242229 -65.854202 26.979542
v -35.232082 -63.112705 9.986020
v -46.274986 -48.281807 7.792433
v -7.218018 -73.833595 14.583831
v -27.284065 -67.873131 6.964071
v -34.998882 9.686641 -50.923698
v -28.176470 -29.425600 -48.929409
v -3.750194 -45.075390 -51.455719
v 18.063238 -56.546204 -34.485401
v 11.667849 -74.666039 12.683734
v 28.641434 -60.433662 -25.467064
v 49.136108 -40.710918 -24.924772
v 37.935402 7.956936 -44.471790
v 39.154179 -20.668535 -43.191616
v 16.506521 -21.114384 -56.545704
v 10.882709 10.388429 -60.091671
v 35.231087 52.012806 -40.683079
v -17.006147 34.043812 -53.970444
v 34.137245 29.090019 -47.151257
v -43.152897 -31.855928 -14.404428
v -40.747944 -1.911483 -17.549923
vt 0.475708 0.856001
vt 0.166744 0.296151
vt 0.325063 0.940049
vt 0.389513 0.889816
vt 0.292978 0.384427
vt 0.239884 0.491991
vt 0.332634 0.807725
vt 0.285972 0.818913
vt 0.263006 0.907385
vt 0.330678 0.297275
vt 0.296426 0.356851
vt 0.241363 0.306092
vt 0.300915 0.257309
vt 0.222161 0.196250
vt 0.321379 0.179063
vt 0.395577 0.267393
vt 0.346628 0.122828
vt 0.671144 0.117354
vt 0.208007 0.052033
vt 0.826112 0.054011
vt 0.586561 0.272782
vt 0.428492 0.401468
vt 0.482674 0.216296
vt 0.400177 0.459221
vt 0.141536 0.898539
vt 0.171895 0.876531
vt 0.174305 0.797363
vt 0.211864 0.755335
vt 0.355285 0.749056
vt 0.241653 0.623692
vt 0.302687 0.643409
vt 0.422128 0.741016
vt 0.349000 0.617111
vt 0.510217 0.727053
vt 0.705329 0.800765
vt 0.839179 0.882238
vt 0.938251 0.804633
vt 0.988512 0.757579
vt 0.833944 0.099788
vt 0.990509 0.688901
vt 0.900798 0.147260
vt 0.872970 0.162266
vt 0.805002 0.150314
vt 0.707944 0.696691
vt 0.797348 0.597169
vt 0.864090 0.381571
vt 0.725396 0.396162
vt 0.700226 0.352534
vt 0.747941 0.166073
vt 0.600476 0.364073
vt 0.605033 0.610495
vt 0.533909 0.537120
vt 0.598401 0.462005
vt 0.661770 0.520735
vt 0.148228 0.761105
vt 0.204667 0.565409
vt 0.494062 0.601055
vt 0.072821 0.727760
vt 0.621685 0.734243
vt 0.357387 0.526109
vt 0.644694 0.858053
vt 0.011433 0.312587
vt 0.106627 0.387916
vt 0.278459 0.945112
vt 0.206024 0.478711
vt 0.142464 0.465817
vt 0.763638 0.497612
vt 0.966803 0.361273
vt 0.622216 0.330984
vt 0.554973 0.311049
vt 0.718461 0.310784
vt 0.597933 0.161381
vt 0.451401 0.130790
vt 0.712263 0.024982
vt 0.275138 0.032526
vt 0.764625 0.338302
vt 0.958936 0.141806
vt 0.975981 0.067858
vt 0.886391 0.025241
vt 0.069233 0.094666
vt 0.112957 0.036350
vt 0.007730 0.211570
vt 0.777303 0.957788
vt 0.892930 0.677374
vt 0.823097 0.750662
vn 0.290836 0.284219 0.913583
vn 0.290836 0.284219 0.913583
vn 0.290836 0.284219 0.913583
vn 0.290836 0.284219 0.913583
vn 0.369791 0.276933 0.886884
vn 0.369791 0.276933 0.886884
vn 0.369791 0.276933 0.886884
vn 0.369791 0.276933 0.886884
vn 0.361021 0.787959 0.498783
vn 0.361021 0.787959 0.498783
vn 0.361021 0.787959 0.498783
vn 0.361021 0.787959 0.498783
vn 0.455567 0.731555 0.507234
vn 0.455567 0.731555 0.507234
vn 0.455567 0.731555 0.507234
vn 0.455566 0.731555 0.507234
vn 0.486939 0.410303 0.771066
vn 0.486939 0.410303 0.771066
vn 0.486939 0.410303 0.771066
vn 0.486939 0.410303 0.771066
vn 0.192560 0.874135 0.445880
vn 0.192560 0.874135 0.445880
vn 0.192560 0.874135 0.445880
vn 0.192560 0.874135 0.445880
vn -0.117086 0.209503 0.970773
vn -0.117086 0.209503 0.970773
vn -0.117086 0.209503 0.970773
vn -0.117086 0.209503 0.970773
vn 0.577834 -0.272601 0.769284
vn 0.577833 -0.272601 0.769284
vn 0.577834 -0.272601 0.769284
vn 0.577833 -0.272601 0.769284
vn 0.548634 -0.384878 0.742206
vn 0.548634 -0.384878 0.742206
vn 0.548634 -0.384878 0.742206
vn 0.548634 -0.384878 0.742206
vn -0.262808 -0.215177 0.940548
vn -0.262808 -0.215177 0.940548
vn -0.262808 -0.215177 0.940548
vn -0.262808 -0.215177 0.940548
vn 0.960741 -0.115483 0.252269
vn 0.960742 -0.115483 0.252269
vn 0.960741 -0.115483 0.252269
vn 0.960741 -0.115483 0.252269
vn 0.985281 0.170443 -0.013078
vn 0.985281 0.170443 -0.013078
vn 0.985281 0.170443 -0.013078
vn 0.985281 0.170443 -0.013078
vn 0.868723 0.245599 0.430118
vn 0.868723 0.245599 0.430118
vn 0.868723 0.245599 0.430118
vn 0.868723 0.245599 0.430118
vn 0.912103 0.220410 0.345671
vn 0.912103 0.220410 0.345670
vn 0.912103 0.220410 0.345670
vn 0.912103 0.220410 0.345671
vn 0.931039 0.236273 0.278105
vn 0.931039 0.236273 0.278105
vn 0.931039 0.236273 0.278105
vn 0.931039 0.236273 0.278105
vn 0.798749 0.593720 -0.097454
vn 0.798749 0.593720 -0.097454
vn 0.798749 0.593720 -0.097454
vn 0.798749 0.593720 -0.097454
vn -0.210706 0.889716 -0.404979
vn -0.210706 0.889716 -0.404979
vn -0.210706 0.889716 -0.404979
vn -0.210706 0.889716 -0.404979
vn -0.187682 0.862252 -0.470422
vn -0.187682 0.862252 -0.470422
vn -0.187682 0.862252 -0.470422
vn -0.187682 0.862252 -0.470422
vn -0.506882 0.661195 0.553075
vn -0.506882 0.661195 0.553075
vn -0.506882 0.661195 0.553075
vn -0.506882 0.661195 0.553075
vn -0.756571 0.648365 0.084988
vn -0.756571 0.648365 0.084988
vn -0.756571 0.648365 0.084988
vn -0.756571 0.648365 0.084988
vn -0.421056 0.850307 0.315736
vn -0.421056 0.850307 0.315736
vn -0.421056 0.850307 0.315736
vn -0.421056 0.850307 0.315736
vn -0.909926 0.414542 -0.013816
vn -0.909926 0.414541 -0.013816
vn -0.909926 0.414542 -0.013816
vn -0.909926 0.414541 -0.013816
vn -0.557124 0.164911 0.813890
vn -0.557124 0.164911 0.813890
vn -0.557124 0.164911 0.813890
vn -0.557124 0.164911 0.813890
vn -0.579441 0.174662 0.796079
vn -0.579441 0.174662 0.796079
vn -0.579441 0.174662 0.796079
vn -0.579441 0.174662 0.796079
vn -0.611892 0.106686 0.783713
vn -0.611892 0.106686 0.783713
vn -0.611892 0.106686 0.783713
vn -0.611892 0.106686 0.783713
vn -0.684935 -0.523200 0.507076
vn -0.684935 -0.523200 0.507076
vn -0.684935 -0.523200 0.507076
vn -0.684935 -0.523200 0.507076
vn -0.666285 -0.459871 0.587012
vn -0.666285 -0.459871 0.587012
vn -0.666285 -0.459871 0.587012
vn -0.666285 -0.459871 0.587012
vn -0.382894 -0.880060 0.280869
vn -0.382894 -0.880060 0.280869
vn -0.382894 -0.880060 0.280869
vn -0.382894 -0.880060 0.280869
vn -0.987832 0.052812 -0.146280
vn -0.987832 0.052812 -0.146280
vn -0.987833 0.052812 -0.146280
vn -0.987832 0.052812 -0.146280
vn -0.948151 -0.083476 -0.306662
vn -0.948151 -0.083476 -0.306662
vn -0.948151 -0.083476 -0.306662
vn -0.948151 -0.083476 -0.306662
vn -0.698681 -0.581809 -0.416344
vn -0.698681 -0.581809 -0.416344
vn -0.698681 -0.581809 -0.416344
vn -0.525887 -0.704669 -0.476325
vn -0.525887 -0.704669 -0.476325
vn -0.525887 -0.704669 -0.476325
vn -0.525887 -0.704669 -0.476325
vn -0.140931 -0.904959 -0.401482
vn -0.140931 -0.904959 -0.401482
vn -0.140931 -0.904959 -0.401482
vn -0.140931 -0.904959 -0.401482
vn -0.060616 -0.928997 -0.365089
vn -0.060616 -0.928997 -0.365089
vn -0.060616 -0.928997 -0.365089
vn -0.060616 -0.928997 -0.365089
vn 0.050588 -0.801250 0.596187
vn 0.050588 -0.801250 0.596187
vn 0.050588 -0.801250 0.596187
vn 0.050588 -0.801250 0.596187
vn 0.010462 -0.805394 0.592648
vn 0.010462 -0.805394 0.592648
vn 0.010462 -0.805394 0.592648
vn 0.010462 -0.805394 0.592648
vn 0.552148 -0.832871 -0.038206
vn 0.552148 -0.832871 -0.038206
vn 0.552148 -0.832871 -0.038206
vn 0.552148 -0.832871 -0.038206
vn 0.601345 -0.783009 -0.159000
vn 0.601345 -0.783009 -0.159000
vn 0.601345 -0.783009 -0.159000
vn 0.601345 -0.783009 -0.159000
vn 0.503242 -0.012084 -0.864061
vn 0.503242 -0.012084 -0.864061
vn 0.503242 -0.012084 -0.864061
vn 0.503242 -0.012084 -0.864061
vn 0.711314 0.589235 -0.383190
vn 0.711314 0.589235 -0.383190
vn 0.711314 0.589235 -0.383190
vn 0.711314 0.589235 -0.383190
vn -0.735819 0.352620 -0.578125
vn -0.735819 0.352620 -0.578125
vn -0.735819 0.352620 -0.578125
vn -0.735819 0.352620 -0.578125
vn -0.714129 0.394282 -0.578413
vn -0.714129 0.394282 -0.578413
vn -0.714129 0.394282 -0.578413
vn -0.714129 0.394282 -0.578413
vn 0.416112 -0.467365 -0.780014
vn 0.416112 -0.467364 -0.780014
vn 0.416112 -0.467365 -0.780014
vn 0.416112 -0.467364 -0.780014
vn 0.466834 -0.460058 -0.755256
vn 0.466834 -0.460058 -0.755256
vn 0.466834 -0.460058 -0.755256
vn 0.466834 -0.460058 -0.755256
vn -0.194365 -0.072418 -0.978253
vn -0.194365 -0.072418 -0.978253
vn -0.194365 -0.072418 -0.978253
vn -0.194365 -0.072418 -0.978253
vn -0.153407 -0.077968 -0.985082
vn -0.153407 -0.077968 -0.985082
vn -0.153407 -0.077968 -0.985082
vn -0.153407 -0.077968 -0.985082
vn 0.893802 0.034640 -0.447122
vn 0.893802 0.034640 -0.447122
vn 0.893802 0.034640 -0.447122
vn 0.893802 0.034640 -0.447122
vn 0.897185 0.029683 -0.440656
vn 0.897185 0.029683 -0.440656
vn 0.897185 0.029683 -0.440656
vn 0.897185 0.029683 -0.440656
vn 0.887523 0.097282 -0.450376
vn 0.887523 0.097282 -0.450376
vn 0.887523 0.097282 -0.450376
vn 0.887523 0.097282 -0.450376
vn 0.893014 0.046622 -0.447608
vn 0.893014 0.046622 -0.447608
vn 0.893014 0.046622 -0.447608
vn 0.893014 0.046622 -0.447608
vn 0.167069 0.224273 -0.960099
vn 0.167069 0.224273 -0.960099
vn 0.167069 0.224273 -0.960099
vn 0.167069 0.224273 -0.960099
vn 0.159782 0.419595 -0.893538
vn 0.159782 0.419595 -0.893538
vn 0.159782 0.419595 -0.893538
vn 0.498554 -0.020276 -0.866621
vn 0.498554 -0.020276 -0.866622
vn 0.498554 -0.020276 -0.866622
vn 0.889201 0.084449 -0.449656
vn 0.889201 0.084449 -0.449656
vn 0.889201 0.084449 -0.449656
vn 0.185624 0.182928 -0.965444
vn 0.185624 0.182928 -0.965444
vn 0.185623 0.182928 -0.965444
vn -0.559699 0.820383 0.117086
vn -0.559699 0.820383 0.117086
vn -0.559699 0.820383 0.117086
vn -0.842903 -0.368990 -0.391613
vn -0.842903 -0.368990 -0.391613
vn -0.842903 -0.368990 -0.391613
vn 0.536703 -0.365230 0.760629
vn 0.536703 -0.365230 0.760629
vn 0.536703 -0.365230 0.760629
vn -0.276669 -0.219376 0.935590
vn -0.276669 -0.219376 0.935590
vn -0.276669 -0.219376 0.935590
vn -0.078039 0.010175 0.996898
vn -0.078039 0.010175 0.996898
vn -0.078039 0.010175 0.996898
vn -0.991990 0.113428 -0.055591
vn -0.991990 0.113428 -0.055591
vn -0.991990 0.113428 -0.055591
vn -0.994732 0.021534 -0.100224
vn -0.994732 0.021534 -0.100224
vn -0.994732 0.021534 -0.100224
vn -0.994732 0.021534 -0.100224
vn -0.990409 0.041047 -0.131926
vn -0.990409 0.041047 -0.131926
vn -0.990409 0.041047 -0.131926
s off
f 1/63/1 2/2/2 3/65/3 4/66/4
f 2/2/5 5/5/6 6/6/7 3/65/8
f 8/7/9 4/4/10 3/3/11 7/8/12
f 9/9/13 7/8/14 3/3/15 6/64/16
f 13/10/17 10/11/18 11/12/19 12/13/20
f 11/12/21 10/11/22 5/5/23 2/2/24
f 12/13/25 11/12/26 2/2/27 14/14/28
f 12/13/29 15/15/30 16/16/31 13/10/32
f 18/17/33 17/73/34 16/16/35 15/15/36
f 14/14/37 19/19/38 20/75/39 15/15/40
f 23/70/41 21/22/42 16/16/43 22/23/44
f 10/11/45 13/10/46 16/16/47 5/5/48
f 16/16/49 21/22/50 24/24/51 5/5/52
f 5/5/53 24/24/54 25/60/55 6/6/56
f 26/26/57 9/9/58 6/64/59 25/25/60
f 9/9/61 26/26/62 27/27/63 7/8/64
f 8/7/65 7/8/66 28/28/67 29/29/68
f 28/28/69 30/30/70 31/31/71 29/29/72
f 4/4/73 8/7/74 29/29/75 32/32/76
f 29/29/77 31/31/78 33/33/79 32/32/80
f 34/34/81 1/1/82 4/4/83 32/32/84
f 35/36/85 34/83/86 33/61/87 36/35/88
f 1/63/89 34/62/90 35/82/91 2/2/92
f 2/2/93 35/82/94 37/80/95 14/14/96
f 19/19/97 14/14/98 37/80/99 38/81/100
f 19/79/101 38/78/102 39/39/103 20/20/104
f 41/77/105 40/41/106 39/39/107 38/78/108
f 43/42/109 42/43/110 39/39/111 40/41/112
f 35/36/113 36/35/114 44/44/115 59/85/116
f 58/84/117 59/85/118 44/44/119 45/45/120
f 41/77/121 45/68/122 40/41/123
f 40/41/124 45/68/125 46/46/126 43/42/127
f 47/76/128 42/43/129 43/42/130 46/46/131
f 49/71/132 48/49/133 42/43/134 47/76/135
f 39/39/136 42/43/137 48/49/138 20/20/139
f 48/49/140 17/18/141 18/74/142 20/20/143
f 17/18/144 48/49/145 49/71/146 22/72/147
f 49/71/148 50/69/149 23/21/150 22/72/151
f 54/51/152 51/52/153 52/53/154 53/54/155
f 28/28/156 7/8/157 27/27/158 55/55/159
f 31/31/160 30/30/161 56/56/162 33/33/163
f 44/44/164 36/35/165 33/61/166 56/59/167
f 52/53/168 47/47/169 46/67/170 53/54/171
f 50/50/172 49/48/173 47/47/174 52/53/175
f 56/59/176 54/51/177 53/54/178 44/44/179
f 44/44/180 53/54/181 46/67/182 45/45/183
f 52/53/184 21/22/185 23/70/186 50/50/187
f 51/52/188 24/24/189 21/22/190 52/53/191
f 57/57/192 25/60/193 24/24/194 51/52/195
f 27/27/196 26/26/197 25/25/198 55/55/199
f 57/58/200 56/56/201 30/30/202 55/55/203
f 54/51/204 56/59/205 57/57/206
f 51/52/207 54/51/208 57/57/209
f 55/55/210 25/25/211 57/58/212
f 30/30/213 28/28/214 55/55/215
f 34/34/216 32/32/217 33/33/218
f 41/40/219 58/84/220 45/45/221
f 22/23/222 16/16/223 17/73/224
f 20/75/225 18/17/226 15/15/227
f 12/13/228 14/14/229 15/15/230
f 41/40/231 38/38/232 58/84/233
f 38/38/234 37/37/235 59/85/236 58/84/237
f 37/37/238 35/36/239 59/85/240
