# This file uses centimeters as units for non-parametric coordinates.

v -21.434498 6.396563 7.629308
v -3.297409 -5.038504 21.144764
v 3.222183 6.514082 22.676701
v -3.792139 14.740396 17.311691
v -23.535067 -9.553102 5.513320
v -16.507658 -18.461899 9.763693
v -7.773082 27.728670 -17.750147
v -3.704339 31.452328 -12.716360
v 18.321583 21.180336 -16.903336
v 6.406111 17.925245 -25.306290
v 19.354393 29.159006 -7.875353
v 1.993883 32.656326 -1.794112
v 19.367254 0.795670 -24.406490
v 8.362474 2.864066 -30.470558
v -16.448723 6.960263 -24.502401
v -16.995884 14.880419 -19.762260
v 7.715680 9.659707 -28.545343
v 18.995956 9.857169 -21.241365
v -6.211545 2.828302 -29.189117
v 2.917612 -1.694863 -31.726419
v 4.226234 -15.151563 -29.578125
v -8.807719 -13.627142 -24.962128
v -20.614882 -8.719407 -19.134689
v 13.182950 -23.170731 -24.083538
v 10.510950 -31.418470 -16.122124
v 5.448394 -36.959339 -6.950235
v -11.017286 -29.636599 -4.224552
v -22.112682 -14.144190 -13.417559
v -18.436878 16.649876 -12.344146
v -4.939796 -17.641247 18.119671
v 22.938969 -12.066370 -20.815041
v 20.957653 -19.714039 -19.592049
v 15.603004 0.505344 20.233599
v 18.790623 -14.381225 14.533316
v 28.393936 4.144827 -2.916438
v 26.914799 12.116579 2.850212
v 25.995516 -15.871634 -0.583884
v 28.833694 -7.753703 -8.843147
v 20.521248 -23.108212 -14.865542
v 11.269732 -28.469299 9.468351
v 5.197108 -23.517788 15.110794
v 8.896876 -10.598270 19.251633
v 10.052638 3.346873 21.728622
v 13.481479 14.373051 10.586650
v 11.563559 31.187656 -5.023877
v 8.499222 26.993132 -15.749140
v -0.100839 22.682566 -22.200941
v -16.928864 10.688681 -22.548132
v -20.513609 3.030751 -16.274612
v -20.409243 12.208542 -3.085564
vt -0.278003 0.619561
vt -0.106900 0.583665
vt -0.052299 0.334010
vt -0.181017 0.724589
vt -0.284688 0.512288
vt -0.323925 0.268252
vt -0.799663 0.719515
vt -0.734743 0.772235
vt -0.447743 0.806631
vt -0.404740 0.846964
vt -0.310411 0.876558
vt -0.884786 0.704724
vt -0.714560 0.464721
vt -0.640154 0.699454
vt -0.815063 0.385490
vt -0.749311 0.377858
vt -0.671085 0.892311
vt -0.498577 0.649198
vt -0.839790 0.496461
vt -0.777254 0.639364
vt -0.597107 0.556411
vt -0.515906 0.615915
vt -0.655094 0.485633
vt -0.516666 0.454950
vt -0.593231 0.407838
vt -0.449584 0.514123
vt -0.589789 0.318149
vt -0.527868 0.265971
vt -0.464862 0.213712
vt -0.383026 0.145111
vt -0.404940 0.476415
vt -0.442973 0.594936
vt -0.417467 0.694079
vt -0.222067 0.246635
vt -0.684064 0.306054
vt -0.634781 0.283181
vt -0.897737 0.202317
vt -0.015565 0.764698
vt -0.082247 0.135015
vt -0.831113 0.221400
vt -0.692356 0.165368
vt -0.739268 0.234871
vt -0.053561 0.734875
vt -0.121291 0.837489
vt -0.615682 0.246843
vt -0.199278 0.093150
vt -0.196461 0.162473
vt -0.111462 0.215133
vt -0.864994 0.645827
vt -0.352396 0.661990
vt -0.635371 0.884178
vt -0.474433 0.683371
vt -0.264445 0.938406
vt -0.984435 0.347792
vt -0.590053 0.687530
vt -0.605818 0.875448
vt -0.771216 0.480753
vt -0.702483 0.718484
vt -0.772463 0.835666
vt -0.822408 0.813813
vt -0.904257 0.776388
vt -0.904531 0.391684
vt -0.550439 0.721790
vt -0.577333 0.793126
vt -0.033313 0.282014
vt -0.019819 0.236919
vt -0.146427 0.307125
vt -0.118076 0.477386
vt -0.705883 0.048522
vt -0.558264 0.072940
vt -0.324506 0.025929
vt -0.099512 0.700435
vt -0.226423 0.441304
vt -0.354657 0.328041
vt -0.067391 0.938883
vt -0.224542 0.988529
vt -0.831556 0.024272
vn -0.515514 0.150581 0.843546
vn -0.515514 0.150581 0.843546
vn -0.515514 0.150581 0.843546
vn -0.515514 0.150581 0.843546
vn -0.603296 -0.051236 0.795870
vn -0.603296 -0.051236 0.795870
vn -0.603296 -0.051236 0.795870
vn -0.603296 -0.051236 0.795870
vn 0.113959 0.750659 -0.650788
vn 0.113959 0.750659 -0.650788
vn 0.113959 0.750659 -0.650788
vn 0.113959 0.750659 -0.650788
vn 0.168520 0.938233 -0.302193
vn 0.168520 0.938232 -0.302193
vn 0.168520 0.938233 -0.302193
vn 0.168520 0.938233 -0.302193
vn 0.509859 0.292442 -0.809025
vn 0.509859 0.292442 -0.809025
vn 0.509859 0.292442 -0.809025
vn 0.509859 0.292442 -0.809025
vn -0.312766 0.409382 -0.857078
vn -0.312766 0.409382 -0.857078
vn -0.312766 0.409382 -0.857078
vn -0.312766 0.409382 -0.857078
vn 0.486538 0.357609 -0.797118
vn 0.486538 0.357609 -0.797118
vn 0.486538 0.357609 -0.797118
vn 0.486538 0.357609 -0.797118
vn -0.194296 0.393492 -0.898562
vn -0.194296 0.393492 -0.898562
vn -0.194296 0.393492 -0.898562
vn -0.194296 0.393492 -0.898562
vn -0.084243 0.301661 -0.949686
vn -0.084243 0.301661 -0.949686
vn -0.084243 0.301661 -0.949686
vn -0.084243 0.301661 -0.949686
vn -0.346512 -0.181246 -0.920369
vn -0.346512 -0.181246 -0.920369
vn -0.346512 -0.181246 -0.920369
vn -0.346512 -0.181246 -0.920369
vn -0.477063 -0.157755 -0.864595
vn -0.477063 -0.157755 -0.864595
vn -0.477063 -0.157755 -0.864595
vn -0.477063 -0.157755 -0.864595
vn -0.264626 -0.673317 -0.690375
vn -0.264626 -0.673317 -0.690375
vn -0.264626 -0.673317 -0.690375
vn -0.264626 -0.673317 -0.690375
vn -0.388938 -0.700005 -0.598932
vn -0.388938 -0.700005 -0.598932
vn -0.388938 -0.700005 -0.598932
vn -0.388938 -0.700005 -0.598932
vn -0.486939 -0.644012 -0.590034
vn -0.486939 -0.644012 -0.590034
vn -0.486938 -0.644012 -0.590034
vn -0.486939 -0.644012 -0.590034
vn -0.823503 -0.559312 0.094939
vn -0.823503 -0.559312 0.094939
vn -0.823503 -0.559312 0.094939
vn -0.823503 -0.559312 0.094939
vn -0.982881 0.146684 -0.111486
vn -0.982881 0.146684 -0.111486
vn -0.982881 0.146684 -0.111486
vn -0.982881 0.146684 -0.111486
vn -0.944126 0.204113 -0.258773
vn -0.944126 0.204113 -0.258773
vn -0.944126 0.204113 -0.258773
vn -0.944126 0.204113 -0.258773
vn -0.290374 -0.807957 0.512726
vn -0.290374 -0.807957 0.512726
vn -0.290374 -0.807957 0.512726
vn -0.290374 -0.807957 0.512726
vn 0.473151 -0.160741 -0.866193
vn 0.473151 -0.160741 -0.866193
vn 0.473151 -0.160741 -0.866193
vn 0.473151 -0.160741 -0.866193
vn 0.420227 -0.140886 -0.896416
vn 0.420227 -0.140886 -0.896416
vn 0.420227 -0.140886 -0.896416
vn 0.420227 -0.140886 -0.896416
vn 0.877660 -0.059398 0.475589
vn 0.877660 -0.059398 0.475589
vn 0.877660 -0.059398 0.475589
vn 0.877660 -0.059398 0.475589
vn 0.923465 -0.066620 0.377855
vn 0.923465 -0.066620 0.377854
vn 0.923465 -0.066620 0.377855
vn 0.923465 -0.066620 0.377855
vn 0.889129 0.210645 -0.406298
vn 0.889129 0.210645 -0.406298
vn 0.889129 0.210645 -0.406298
vn 0.889129 0.210645 -0.406298
vn 0.906745 0.270576 -0.323421
vn 0.906745 0.270576 -0.323421
vn 0.906745 0.270576 -0.323421
vn 0.906746 0.270577 -0.323421
vn 0.315291 0.650861 0.690631
vn 0.315291 0.650861 0.690631
vn 0.315291 0.650861 0.690631
vn 0.315291 0.650861 0.690631
vn 0.301194 0.657145 0.690973
vn 0.301194 0.657145 0.690973
vn 0.301194 0.657145 0.690973
vn 0.301194 0.657145 0.690973
vn 0.892053 -0.435335 -0.121344
vn 0.892053 -0.435335 -0.121344
vn 0.892053 -0.435335 -0.121344
vn 0.897762 -0.344483 -0.274509
vn 0.897762 -0.344483 -0.274509
vn 0.897762 -0.344483 -0.274509
vn 0.897762 -0.344483 -0.274509
vn 0.588218 -0.662503 -0.463778
vn 0.588218 -0.662503 -0.463778
vn 0.588218 -0.662503 -0.463778
vn 0.588218 -0.662503 -0.463778
vn 0.692850 -0.718390 0.062247
vn 0.692850 -0.718390 0.062247
vn 0.692850 -0.718390 0.062247
vn 0.692850 -0.718390 0.062247
vn 0.719724 -0.652858 0.236167
vn 0.719723 -0.652858 0.236167
vn 0.719724 -0.652858 0.236167
vn 0.719724 -0.652858 0.236167
vn -0.282999 -0.820492 0.496694
vn -0.282999 -0.820492 0.496694
vn -0.282999 -0.820492 0.496694
vn -0.282999 -0.820492 0.496694
vn 0.066657 -0.174524 0.982394
vn 0.066657 -0.174524 0.982394
vn 0.066657 -0.174524 0.982394
vn 0.066657 -0.174524 0.982394
vn 0.319670 -0.421987 0.848374
vn 0.319670 -0.421987 0.848374
vn 0.319670 -0.421987 0.848374
vn 0.319669 -0.421987 0.848374
vn 0.065456 -0.282415 0.957057
vn 0.065456 -0.282415 0.957056
vn 0.065456 -0.282415 0.957056
vn 0.065456 -0.282415 0.957056
vn 0.269516 -0.245135 0.931273
vn 0.269516 -0.245135 0.931273
vn 0.269516 -0.245135 0.931274
vn 0.269516 -0.245135 0.931273
vn 0.480106 0.549250 0.683976
vn 0.480106 0.549250 0.683976
vn 0.480106 0.549250 0.683976
vn 0.480106 0.549250 0.683976
vn 0.446062 0.623973 0.641627
vn 0.446062 0.623973 0.641627
vn 0.446062 0.623973 0.641627
vn 0.446062 0.623973 0.641627
vn 0.234532 0.805101 -0.544800
vn 0.234532 0.805101 -0.544800
vn 0.234532 0.805101 -0.544800
vn 0.234532 0.805101 -0.544800
vn 0.254562 0.673082 -0.694376
vn 0.254562 0.673082 -0.694376
vn 0.254562 0.673082 -0.694376
vn 0.254562 0.673082 -0.694376
vn -0.218936 0.360379 -0.906749
vn -0.218936 0.360379 -0.906749
vn -0.218936 0.360379 -0.906749
vn -0.218936 0.360379 -0.906749
vn -0.910394 0.102400 -0.400869
vn -0.910394 0.102400 -0.400869
vn -0.910394 0.102400 -0.400869
vn -0.910394 0.102400 -0.400869
vn -0.998031 0.044048 -0.044651
vn -0.998031 0.044048 -0.044651
vn -0.998031 0.044048 -0.044651
vn -0.998031 0.044048 -0.044651
vn -0.604106 0.685065 0.407114
vn -0.604106 0.685065 0.407114
vn -0.604106 0.685065 0.407114
vn -0.604106 0.685065 0.407114
vn -0.700273 0.700432 0.137886
vn -0.700273 0.700432 0.137886
vn -0.700273 0.700432 0.137886
vn -0.700273 0.700432 0.137886
vn -0.658211 0.704369 0.265749
vn -0.658211 0.704369 0.265749
vn -0.658211 0.704369 0.265749
vn -0.975704 0.183381 -0.119887
vn -0.975704 0.183381 -0.119887
vn -0.975704 0.183381 -0.119887
vn -0.756294 0.587854 -0.287135
vn -0.756294 0.587854 -0.287135
vn -0.756294 0.587854 -0.287135
vn -0.575820 -0.119112 0.808853
vn -0.575821 -0.119112 0.808853
vn -0.575820 -0.119112 0.808853
vn 0.927301 0.221443 -0.301789
vn 0.927301 0.221443 -0.301789
vn 0.927301 0.221443 -0.301789
vn 0.437756 -0.126974 -0.890083
vn 0.437756 -0.126974 -0.890083
vn 0.437756 -0.126974 -0.890083
vn 0.875053 0.111476 -0.471016
vn 0.875053 0.111476 -0.471016
vn 0.875053 0.111476 -0.471016
s off
f 1/1/1 2/2/2 3/72/3 4/4/4
f 2/2/5 1/1/6 5/5/7 6/73/8
f 46/7/9 47/8/10 7/59/11 8/60/12
f 12/61/13 45/12/14 46/7/15 8/60/16
f 14/13/17 17/57/18 18/15/19 13/16/20
f 16/17/21 7/59/22 47/8/23 48/51/24
f 18/15/25 17/57/26 10/19/27 9/62/28
f 17/14/29 19/64/30 15/56/31 10/58/32
f 20/63/33 19/64/34 17/14/35 14/55/36
f 22/24/37 19/21/38 20/23/39 21/25/40
f 23/26/41 15/22/42 19/21/43 22/24/44
f 21/25/45 24/27/46 25/28/47 22/24/48
f 22/24/49 25/28/50 26/29/51 27/74/52
f 27/74/53 28/31/54 23/26/55 22/24/56
f 5/5/57 28/31/58 27/74/59 6/73/60
f 28/31/61 5/5/62 1/1/63 23/26/64
f 16/52/65 48/18/66 49/32/67 29/33/68
f 6/6/69 27/30/70 26/71/71 30/34/72
f 21/25/73 31/35/74 32/36/75 24/27/76
f 21/25/77 20/23/78 14/13/79 13/16/80
f 36/37/81 33/77/82 34/69/83 35/40/84
f 34/69/85 37/41/86 38/42/87 35/40/88
f 18/15/89 35/40/90 38/42/91 13/16/92
f 35/40/93 18/15/94 9/62/95 36/37/96
f 3/72/97 43/43/98 44/44/99 4/4/100
f 4/4/101 44/44/102 45/53/103 12/11/104
f 39/45/105 38/42/106 37/41/107
f 38/42/108 39/45/109 32/36/110 31/35/111
f 39/45/112 25/28/113 24/27/114 32/36/115
f 40/70/116 26/29/117 25/28/118 39/45/119
f 39/45/120 37/41/121 34/69/122 40/70/123
f 40/46/124 41/47/125 30/34/126 26/71/127
f 42/48/128 43/65/129 3/3/130 2/67/131
f 41/47/132 40/46/133 34/39/134 42/48/135
f 2/67/136 30/34/137 41/47/138 42/48/139
f 33/66/140 43/65/141 42/48/142 34/39/143
f 44/44/144 43/43/145 33/38/146 36/75/147
f 45/53/148 44/44/149 36/75/150 11/76/151
f 46/7/152 45/12/153 11/49/154 9/20/155
f 10/58/156 47/8/157 46/7/158 9/20/159
f 48/51/160 47/8/161 10/58/162 15/56/163
f 49/32/164 48/18/165 15/22/166 23/26/167
f 50/50/168 49/32/169 23/26/170 1/1/171
f 1/1/172 4/4/173 12/11/174 50/50/175
f 7/9/176 29/33/177 50/50/178 8/10/179
f 8/10/180 50/50/181 12/11/182
f 50/50/183 29/33/184 49/32/185
f 7/9/186 16/52/187 29/33/188
f 6/73/189 30/68/190 2/2/191
f 36/37/192 9/62/193 11/54/194
f 31/35/195 21/25/196 13/16/197
f 31/35/198 13/16/199 38/42/200
